<svg width="56" height="57" viewBox="0 0 56 57" fill="none" xmlns="http://www.w3.org/2000/svg">
<rect x="0.5" y="1" width="55" height="55" rx="27.5" fill="#F9FAFB"/>
<rect x="0.5" y="1" width="55" height="55" rx="27.5" stroke="#EAECF0"/>
<path d="M38 25.4314C38 24.8256 38 24.5226 37.8802 24.3824C37.7763 24.2607 37.6203 24.1961 37.4608 24.2086C37.2769 24.2231 37.0627 24.4373 36.6343 24.8657L33 28.5L36.6343 32.1343C37.0627 32.5627 37.2769 32.7769 37.4608 32.7914C37.6203 32.8039 37.7763 32.7393 37.8802 32.6176C38 32.4774 38 32.1744 38 31.5686V25.4314Z" stroke="#175CD3" stroke-width="2" stroke-linecap="round" stroke-linejoin="round"/>
<path d="M18 26.3C18 24.6198 18 23.7798 18.327 23.138C18.6146 22.5735 19.0735 22.1146 19.638 21.827C20.2798 21.5 21.1198 21.5 22.8 21.5H28.2C29.8802 21.5 30.7202 21.5 31.362 21.827C31.9265 22.1146 32.3854 22.5735 32.673 23.138C33 23.7798 33 24.6198 33 26.3V30.7C33 32.3802 33 33.2202 32.673 33.862C32.3854 34.4265 31.9265 34.8854 31.362 35.173C30.7202 35.5 29.8802 35.5 28.2 35.5H22.8C21.1198 35.5 20.2798 35.5 19.638 35.173C19.0735 34.8854 18.6146 34.4265 18.327 33.862C18 33.2202 18 32.3802 18 30.7V26.3Z" stroke="#175CD3" stroke-width="2" stroke-linecap="round" stroke-linejoin="round"/>
</svg>
