<svg width="264" height="24" viewBox="0 0 264 24" fill="none" xmlns="http://www.w3.org/2000/svg">
<g clip-path="url(#clip0_2_9178)">
<path d="M22.2234 0H1.77187C0.792187 0 0 0.773438 0 1.72969V22.2656C0 23.2219 0.792187 24 1.77187 24H22.2234C23.2031 24 24 23.2219 24 22.2703V1.72969C24 0.773438 23.2031 0 22.2234 0ZM7.12031 20.4516H3.55781V8.99531H7.12031V20.4516ZM5.33906 7.43438C4.19531 7.43438 3.27188 6.51094 3.27188 5.37187C3.27188 4.23281 4.19531 3.30937 5.33906 3.30937C6.47813 3.30937 7.40156 4.23281 7.40156 5.37187C7.40156 6.50625 6.47813 7.43438 5.33906 7.43438ZM20.4516 20.4516H16.8937V14.8828C16.8937 13.5562 16.8703 11.8453 15.0422 11.8453C13.1906 11.8453 12.9094 13.2937 12.9094 14.7891V20.4516H9.35625V8.99531H12.7687V10.5609H12.8156C13.2891 9.66094 14.4516 8.70938 16.1813 8.70938C19.7859 8.70938 20.4516 11.0813 20.4516 14.1656V20.4516Z" fill="#98A2B3"/>
</g>
<path d="M55.5502 21.7502C64.6045 21.7502 69.5583 14.2469 69.5583 7.74211C69.5583 7.53117 69.5536 7.31554 69.5442 7.1046C70.5079 6.40771 71.3395 5.5445 72 4.55554C71.1025 4.95484 70.1496 5.21563 69.1739 5.32898C70.2013 4.71315 70.9705 3.74572 71.3391 2.60601C70.3726 3.1788 69.3156 3.58286 68.2134 3.80085C67.4708 3.01181 66.489 2.48936 65.4197 2.3143C64.3504 2.13923 63.2532 2.32129 62.2977 2.83234C61.3423 3.34339 60.5818 4.15495 60.1338 5.14156C59.6859 6.12816 59.5754 7.23486 59.8195 8.29054C57.8625 8.19233 55.9479 7.68395 54.2 6.79834C52.452 5.91274 50.9097 4.66968 49.673 3.14976C49.0444 4.23349 48.8521 5.51589 49.135 6.73634C49.418 7.95678 50.1551 9.02369 51.1964 9.72023C50.4146 9.69541 49.65 9.48492 48.9656 9.10617V9.1671C48.9649 10.3044 49.3581 11.4068 50.0783 12.287C50.7985 13.1672 51.8013 13.7708 52.9162 13.9952C52.1921 14.1934 51.432 14.2222 50.6948 14.0796C51.0095 15.0577 51.6216 15.9131 52.4458 16.5266C53.27 17.14 54.2651 17.4808 55.2923 17.5015C53.5484 18.8714 51.3942 19.6144 49.1766 19.6109C48.7833 19.6103 48.3904 19.5861 48 19.5387C50.2529 20.984 52.8735 21.7516 55.5502 21.7502Z" fill="#98A2B3"/>
<g clip-path="url(#clip1_2_9178)">
<path d="M120 12C120 5.37258 114.627 0 108 0C101.373 0 96 5.37258 96 12C96 17.9895 100.388 22.954 106.125 23.8542V15.4688H103.078V12H106.125V9.35625C106.125 6.34875 107.917 4.6875 110.658 4.6875C111.97 4.6875 113.344 4.92188 113.344 4.92188V7.875H111.831C110.34 7.875 109.875 8.80008 109.875 9.75V12H113.203L112.671 15.4688H109.875V23.8542C115.612 22.954 120 17.9895 120 12Z" fill="#98A2B3"/>
</g>
<g clip-path="url(#clip2_2_9178)">
<path d="M156 2.16094C159.206 2.16094 159.586 2.175 160.847 2.23125C162.019 2.28281 162.652 2.47969 163.073 2.64375C163.631 2.85938 164.034 3.12188 164.452 3.53906C164.873 3.96094 165.131 4.35938 165.347 4.91719C165.511 5.33906 165.708 5.97656 165.759 7.14375C165.816 8.40937 165.83 8.78906 165.83 11.9906C165.83 15.1969 165.816 15.5766 165.759 16.8375C165.708 18.0094 165.511 18.6422 165.347 19.0641C165.131 19.6219 164.869 20.025 164.452 20.4422C164.03 20.8641 163.631 21.1219 163.073 21.3375C162.652 21.5016 162.014 21.6984 160.847 21.75C159.581 21.8062 159.202 21.8203 156 21.8203C152.794 21.8203 152.414 21.8062 151.153 21.75C149.981 21.6984 149.348 21.5016 148.927 21.3375C148.369 21.1219 147.966 20.8594 147.548 20.4422C147.127 20.0203 146.869 19.6219 146.653 19.0641C146.489 18.6422 146.292 18.0047 146.241 16.8375C146.184 15.5719 146.17 15.1922 146.17 11.9906C146.17 8.78438 146.184 8.40469 146.241 7.14375C146.292 5.97187 146.489 5.33906 146.653 4.91719C146.869 4.35938 147.131 3.95625 147.548 3.53906C147.97 3.11719 148.369 2.85938 148.927 2.64375C149.348 2.47969 149.986 2.28281 151.153 2.23125C152.414 2.175 152.794 2.16094 156 2.16094ZM156 0C152.742 0 152.334 0.0140625 151.055 0.0703125C149.78 0.126563 148.903 0.332812 148.144 0.628125C147.352 0.9375 146.681 1.34531 146.016 2.01562C145.345 2.68125 144.938 3.35156 144.628 4.13906C144.333 4.90313 144.127 5.775 144.07 7.05C144.014 8.33437 144 8.74219 144 12C144 15.2578 144.014 15.6656 144.07 16.9453C144.127 18.2203 144.333 19.0969 144.628 19.8563C144.938 20.6484 145.345 21.3188 146.016 21.9844C146.681 22.65 147.352 23.0625 148.139 23.3672C148.903 23.6625 149.775 23.8687 151.05 23.925C152.33 23.9812 152.738 23.9953 155.995 23.9953C159.253 23.9953 159.661 23.9812 160.941 23.925C162.216 23.8687 163.092 23.6625 163.852 23.3672C164.639 23.0625 165.309 22.65 165.975 21.9844C166.641 21.3188 167.053 20.6484 167.358 19.8609C167.653 19.0969 167.859 18.225 167.916 16.95C167.972 15.6703 167.986 15.2625 167.986 12.0047C167.986 8.74688 167.972 8.33906 167.916 7.05938C167.859 5.78438 167.653 4.90781 167.358 4.14844C167.062 3.35156 166.655 2.68125 165.984 2.01562C165.319 1.35 164.648 0.9375 163.861 0.632812C163.097 0.3375 162.225 0.13125 160.95 0.075C159.666 0.0140625 159.258 0 156 0Z" fill="#98A2B3"/>
<path d="M156 5.83594C152.597 5.83594 149.836 8.59688 149.836 12C149.836 15.4031 152.597 18.1641 156 18.1641C159.403 18.1641 162.164 15.4031 162.164 12C162.164 8.59688 159.403 5.83594 156 5.83594ZM156 15.9984C153.792 15.9984 152.002 14.2078 152.002 12C152.002 9.79219 153.792 8.00156 156 8.00156C158.208 8.00156 159.998 9.79219 159.998 12C159.998 14.2078 158.208 15.9984 156 15.9984Z" fill="#98A2B3"/>
<path d="M163.847 5.59238C163.847 6.38926 163.2 7.03145 162.408 7.03145C161.611 7.03145 160.969 6.38457 160.969 5.59238C160.969 4.79551 161.616 4.15332 162.408 4.15332C163.2 4.15332 163.847 4.8002 163.847 5.59238Z" fill="#98A2B3"/>
</g>
<g clip-path="url(#clip3_2_9178)">
<path fill-rule="evenodd" clip-rule="evenodd" d="M204 0C197.372 0 192 5.3808 192 12.0204C192 17.3304 195.438 21.8364 200.207 23.4252C200.807 23.5356 201.025 23.1648 201.025 22.8456C201.025 22.5612 201.016 21.804 201.01 20.802C197.671 21.528 196.967 19.1904 196.967 19.1904C196.422 17.8008 195.635 17.4312 195.635 17.4312C194.545 16.6872 195.718 16.7016 195.718 16.7016C196.921 16.7856 197.555 17.94 197.555 17.94C198.625 19.776 200.364 19.2456 201.047 18.9384C201.157 18.162 201.467 17.6328 201.81 17.3328C199.146 17.0292 196.344 15.9972 196.344 11.3916C196.344 10.08 196.812 9.006 197.579 8.166C197.455 7.8624 197.044 6.6396 197.696 4.986C197.696 4.986 198.704 4.662 200.996 6.2172C201.975 5.95022 202.985 5.81423 204 5.8128C205.02 5.8176 206.046 5.9508 207.005 6.2172C209.296 4.662 210.301 4.9848 210.301 4.9848C210.956 6.6396 210.544 7.8624 210.421 8.166C211.189 9.006 211.655 10.08 211.655 11.3916C211.655 16.0092 208.848 17.0256 206.176 17.3232C206.606 17.694 206.989 18.4272 206.989 19.5492C206.989 21.1548 206.975 22.452 206.975 22.8456C206.975 23.1672 207.191 23.5416 207.8 23.424C210.19 22.6225 212.267 21.0904 213.739 19.0441C215.21 16.9977 216.001 14.5408 216 12.0204C216 5.3808 210.626 0 204 0Z" fill="#98A2B3"/>
</g>
<path d="M263.761 7.1998C263.761 7.1998 263.527 5.54512 262.805 4.81855C261.891 3.8623 260.869 3.85762 260.4 3.80137C257.044 3.55762 252.005 3.55762 252.005 3.55762H251.995C251.995 3.55762 246.956 3.55762 243.6 3.80137C243.131 3.85762 242.109 3.8623 241.195 4.81855C240.473 5.54512 240.244 7.1998 240.244 7.1998C240.244 7.1998 240 9.14512 240 11.0857V12.9045C240 14.8451 240.239 16.7904 240.239 16.7904C240.239 16.7904 240.473 18.4451 241.191 19.1717C242.105 20.1279 243.305 20.0951 243.839 20.1982C245.761 20.3811 252 20.4373 252 20.4373C252 20.4373 257.044 20.4279 260.4 20.1889C260.869 20.1326 261.891 20.1279 262.805 19.1717C263.527 18.4451 263.761 16.7904 263.761 16.7904C263.761 16.7904 264 14.8498 264 12.9045V11.0857C264 9.14512 263.761 7.1998 263.761 7.1998ZM249.52 15.1123V8.36699L256.003 11.7514L249.52 15.1123Z" fill="#98A2B3"/>
<defs>
<clipPath id="clip0_2_9178">
<rect width="24" height="24" fill="white"/>
</clipPath>
<clipPath id="clip1_2_9178">
<rect width="24" height="24" fill="white" transform="translate(96)"/>
</clipPath>
<clipPath id="clip2_2_9178">
<rect width="24" height="24" fill="white" transform="translate(144)"/>
</clipPath>
<clipPath id="clip3_2_9178">
<rect width="24" height="24" fill="white" transform="translate(192)"/>
</clipPath>
</defs>
</svg>
