<svg width="348" height="48" viewBox="0 0 348 48" fill="none" xmlns="http://www.w3.org/2000/svg">
<g filter="url(#filter0_d_2_8986)">
<rect x="2" y="1" width="44" height="44" rx="22" fill="white"/>
<rect x="2.5" y="1.5" width="43" height="43" rx="21.5" stroke="#D1E9FF"/>
<path d="M29.8334 21.3333V23C29.8334 26.2217 27.2217 28.8333 24 28.8333M18.1667 21.3333V23C18.1667 26.2217 20.7784 28.8333 24 28.8333M24 28.8333V31.3333M20.6667 31.3333H27.3334M24 25.5C22.6193 25.5 21.5 24.3807 21.5 23V17.1667C21.5 15.7859 22.6193 14.6667 24 14.6667C25.3807 14.6667 26.5 15.7859 26.5 17.1667V23C26.5 24.3807 25.3807 25.5 24 25.5Z" stroke="#175CD3" stroke-width="1.5" stroke-linecap="round" stroke-linejoin="round"/>
</g>
<g filter="url(#filter1_d_2_8986)">
<rect x="62" y="1" width="44" height="44" rx="22" fill="white"/>
<rect x="62.5" y="1.5" width="43" height="43" rx="21.5" stroke="#D1E9FF"/>
<path d="M92.3334 20.4428C92.3334 19.938 92.3334 19.6855 92.2335 19.5686C92.1469 19.4672 92.017 19.4134 91.884 19.4239C91.7308 19.4359 91.5523 19.6144 91.1953 19.9714L88.1667 23L91.1953 26.0286C91.5523 26.3856 91.7308 26.5641 91.884 26.5761C92.017 26.5866 92.1469 26.5328 92.2335 26.4313C92.3334 26.3145 92.3334 26.062 92.3334 25.5572V20.4428Z" stroke="#175CD3" stroke-width="1.5" stroke-linecap="round" stroke-linejoin="round"/>
<path d="M75.6667 21.1667C75.6667 19.7665 75.6667 19.0665 75.9392 18.5317C76.1789 18.0613 76.5613 17.6788 77.0317 17.4391C77.5665 17.1667 78.2666 17.1667 79.6667 17.1667H84.1667C85.5668 17.1667 86.2669 17.1667 86.8017 17.4391C87.2721 17.6788 87.6545 18.0613 87.8942 18.5317C88.1667 19.0665 88.1667 19.7665 88.1667 21.1667V24.8333C88.1667 26.2335 88.1667 26.9335 87.8942 27.4683C87.6545 27.9387 87.2721 28.3212 86.8017 28.5608C86.2669 28.8333 85.5668 28.8333 84.1667 28.8333H79.6667C78.2666 28.8333 77.5665 28.8333 77.0317 28.5608C76.5613 28.3212 76.1789 27.9387 75.9392 27.4683C75.6667 26.9335 75.6667 26.2335 75.6667 24.8333V21.1667Z" stroke="#175CD3" stroke-width="1.5" stroke-linecap="round" stroke-linejoin="round"/>
</g>
<g filter="url(#filter2_d_2_8986)">
<rect x="122" y="1" width="44" height="44" rx="22" fill="white"/>
<rect x="122.5" y="1.5" width="43" height="43" rx="21.5" stroke="#D1E9FF"/>
<path d="M140.667 30.5H147.333M144 27.1667V30.5M139.667 27.1667H148.333C149.733 27.1667 150.434 27.1667 150.968 26.8942C151.439 26.6545 151.821 26.272 152.061 25.8016C152.333 25.2669 152.333 24.5668 152.333 23.1667V19.5C152.333 18.0999 152.333 17.3998 152.061 16.865C151.821 16.3946 151.439 16.0122 150.968 15.7725C150.434 15.5 149.733 15.5 148.333 15.5H139.667C138.267 15.5 137.566 15.5 137.032 15.7725C136.561 16.0122 136.179 16.3946 135.939 16.865C135.667 17.3998 135.667 18.0999 135.667 19.5V23.1667C135.667 24.5668 135.667 25.2669 135.939 25.8016C136.179 26.272 136.561 26.6545 137.032 26.8942C137.566 27.1667 138.267 27.1667 139.667 27.1667Z" stroke="#175CD3" stroke-width="1.5" stroke-linecap="round" stroke-linejoin="round"/>
</g>
<g filter="url(#filter3_d_2_8986)">
<rect x="182" y="1" width="44" height="44" rx="22" fill="white"/>
<rect x="182.5" y="1.5" width="43" height="43" rx="21.5" stroke="#D1E9FF"/>
<g clip-path="url(#clip0_2_8986)">
<path d="M200.667 24.6667C200.667 24.6667 201.917 26.3333 204 26.3333C206.083 26.3333 207.333 24.6667 207.333 24.6667M206.5 20.5H206.508M201.5 20.5H201.508M212.333 23C212.333 27.6024 208.602 31.3333 204 31.3333C199.398 31.3333 195.667 27.6024 195.667 23C195.667 18.3976 199.398 14.6667 204 14.6667C208.602 14.6667 212.333 18.3976 212.333 23ZM206.917 20.5C206.917 20.7301 206.73 20.9167 206.5 20.9167C206.27 20.9167 206.083 20.7301 206.083 20.5C206.083 20.2699 206.27 20.0833 206.5 20.0833C206.73 20.0833 206.917 20.2699 206.917 20.5ZM201.917 20.5C201.917 20.7301 201.73 20.9167 201.5 20.9167C201.27 20.9167 201.083 20.7301 201.083 20.5C201.083 20.2699 201.27 20.0833 201.5 20.0833C201.73 20.0833 201.917 20.2699 201.917 20.5Z" stroke="#175CD3" stroke-width="1.5" stroke-linecap="round" stroke-linejoin="round"/>
</g>
</g>
<g filter="url(#filter4_d_2_8986)">
<rect x="242" y="1" width="44" height="44" rx="22" fill="white"/>
<rect x="242.5" y="1.5" width="43" height="43" rx="21.5" stroke="#D1E9FF"/>
<path d="M260.667 20.9167H264M260.667 23.8333H266.5M264 30.5C268.142 30.5 271.5 27.1421 271.5 23C271.5 18.8579 268.142 15.5 264 15.5C259.858 15.5 256.5 18.8579 256.5 23C256.5 23.9976 256.695 24.9497 257.048 25.8204C257.116 25.9871 257.15 26.0704 257.165 26.1377C257.18 26.2036 257.185 26.2524 257.185 26.3199C257.185 26.3889 257.173 26.4641 257.148 26.6145L256.653 29.5794C256.602 29.8898 256.576 30.0451 256.624 30.1573C256.666 30.2556 256.744 30.3339 256.843 30.376C256.955 30.4242 257.11 30.3983 257.421 30.3466L260.386 29.8524C260.536 29.8273 260.611 29.8148 260.68 29.8148C260.748 29.8148 260.796 29.8202 260.862 29.835C260.93 29.8501 261.013 29.8839 261.18 29.9516C262.05 30.3052 263.002 30.5 264 30.5Z" stroke="#175CD3" stroke-width="1.5" stroke-linecap="round" stroke-linejoin="round"/>
</g>
<g filter="url(#filter5_d_2_8986)">
<rect x="302" y="1" width="44" height="44" rx="22" fill="white"/>
<rect x="302.5" y="1.5" width="43" height="43" rx="21.5" stroke="#D1E9FF"/>
<g clip-path="url(#clip1_2_8986)">
<path d="M324 25.5C325.381 25.5 326.5 24.3807 326.5 23C326.5 21.6193 325.381 20.5 324 20.5C322.619 20.5 321.5 21.6193 321.5 23C321.5 24.3807 322.619 25.5 324 25.5Z" stroke="#175CD3" stroke-width="1.5" stroke-linecap="round" stroke-linejoin="round"/>
<path d="M329.606 25.2727C329.505 25.5012 329.475 25.7547 329.52 26.0004C329.564 26.2462 329.681 26.473 329.856 26.6515L329.901 26.697C330.042 26.8377 330.154 27.0048 330.23 27.1887C330.307 27.3727 330.346 27.5698 330.346 27.7689C330.346 27.968 330.307 28.1652 330.23 28.3491C330.154 28.5331 330.042 28.7002 329.901 28.8409C329.761 28.9818 329.594 29.0935 329.41 29.1698C329.226 29.246 329.029 29.2853 328.83 29.2853C328.63 29.2853 328.433 29.246 328.249 29.1698C328.065 29.0935 327.898 28.9818 327.758 28.8409L327.712 28.7954C327.534 28.6208 327.307 28.5036 327.061 28.4591C326.815 28.4145 326.562 28.4446 326.333 28.5454C326.109 28.6415 325.918 28.8009 325.784 29.0042C325.649 29.2074 325.577 29.4456 325.576 29.6894V29.8182C325.576 30.22 325.416 30.6054 325.132 30.8895C324.848 31.1737 324.462 31.3333 324.061 31.3333C323.659 31.3333 323.273 31.1737 322.989 30.8895C322.705 30.6054 322.545 30.22 322.545 29.8182V29.75C322.54 29.4992 322.458 29.256 322.312 29.052C322.167 28.848 321.963 28.6926 321.727 28.6061C321.499 28.5052 321.245 28.4751 321 28.5197C320.754 28.5642 320.527 28.6814 320.348 28.8561L320.303 28.9015C320.162 29.0424 319.995 29.1541 319.811 29.2304C319.627 29.3066 319.43 29.3459 319.231 29.3459C319.032 29.3459 318.835 29.3066 318.651 29.2304C318.467 29.1541 318.3 29.0424 318.159 28.9015C318.018 28.7608 317.906 28.5937 317.83 28.4097C317.754 28.2258 317.715 28.0287 317.715 27.8295C317.715 27.6304 317.754 27.4333 317.83 27.2493C317.906 27.0654 318.018 26.8983 318.159 26.7576L318.205 26.7121C318.379 26.5336 318.496 26.3068 318.541 26.061C318.585 25.8153 318.555 25.5618 318.455 25.3333C318.358 25.1093 318.199 24.9182 317.996 24.7836C317.793 24.649 317.554 24.5767 317.311 24.5757H317.182C316.78 24.5757 316.395 24.4161 316.11 24.132C315.826 23.8478 315.667 23.4624 315.667 23.0606C315.667 22.6588 315.826 22.2734 316.11 21.9892C316.395 21.7051 316.78 21.5454 317.182 21.5454H317.25C317.501 21.5396 317.744 21.4584 317.948 21.3125C318.152 21.1666 318.307 20.9627 318.394 20.7273C318.495 20.4988 318.525 20.2453 318.48 19.9995C318.436 19.7538 318.319 19.527 318.144 19.3485L318.098 19.303C317.958 19.1623 317.846 18.9952 317.77 18.8113C317.693 18.6273 317.654 18.4302 317.654 18.2311C317.654 18.0319 317.693 17.8348 317.77 17.6508C317.846 17.4669 317.958 17.2998 318.098 17.1591C318.239 17.0182 318.406 16.9065 318.59 16.8302C318.774 16.754 318.971 16.7147 319.17 16.7147C319.37 16.7147 319.567 16.754 319.751 16.8302C319.935 16.9065 320.102 17.0182 320.242 17.1591L320.288 17.2045C320.466 17.3792 320.693 17.4963 320.939 17.5409C321.185 17.5855 321.438 17.5554 321.667 17.4545H321.727C321.951 17.3585 322.142 17.199 322.277 16.9958C322.412 16.7925 322.484 16.5544 322.485 16.3106V16.1818C322.485 15.78 322.644 15.3946 322.929 15.1104C323.213 14.8263 323.598 14.6667 324 14.6667C324.402 14.6667 324.787 14.8263 325.071 15.1104C325.355 15.3946 325.515 15.78 325.515 16.1818V16.25C325.516 16.4938 325.588 16.7319 325.723 16.9352C325.858 17.1384 326.049 17.2979 326.273 17.3939C326.501 17.4948 326.755 17.5249 327 17.4803C327.246 17.4357 327.473 17.3186 327.651 17.1439L327.697 17.0985C327.838 16.9576 328.005 16.8458 328.189 16.7696C328.373 16.6933 328.57 16.6541 328.769 16.6541C328.968 16.6541 329.165 16.6933 329.349 16.7696C329.533 16.8458 329.7 16.9576 329.841 17.0985C329.982 17.2392 330.093 17.4063 330.17 17.5902C330.246 17.7742 330.285 17.9713 330.285 18.1704C330.285 18.3696 330.246 18.5667 330.17 18.7507C330.093 18.9346 329.982 19.1017 329.841 19.2424L329.795 19.2879C329.621 19.4664 329.504 19.6932 329.459 19.9389C329.414 20.1847 329.445 20.4382 329.545 20.6667V20.7273C329.641 20.9513 329.801 21.1424 330.004 21.277C330.207 21.4116 330.446 21.4839 330.689 21.4848H330.818C331.22 21.4848 331.605 21.6445 331.89 21.9286C332.174 22.2128 332.333 22.5981 332.333 23C332.333 23.4018 332.174 23.7872 331.89 24.0714C331.605 24.3555 331.22 24.5151 330.818 24.5151H330.75C330.506 24.5161 330.268 24.5883 330.065 24.723C329.862 24.8576 329.702 25.0487 329.606 25.2727Z" stroke="#175CD3" stroke-width="1.5" stroke-linecap="round" stroke-linejoin="round"/>
</g>
</g>
<defs>
<filter id="filter0_d_2_8986" x="0" y="0" width="48" height="48" filterUnits="userSpaceOnUse" color-interpolation-filters="sRGB">
<feFlood flood-opacity="0" result="BackgroundImageFix"/>
<feColorMatrix in="SourceAlpha" type="matrix" values="0 0 0 0 0 0 0 0 0 0 0 0 0 0 0 0 0 0 127 0" result="hardAlpha"/>
<feOffset dy="1"/>
<feGaussianBlur stdDeviation="1"/>
<feColorMatrix type="matrix" values="0 0 0 0 0.0627451 0 0 0 0 0.0941176 0 0 0 0 0.156863 0 0 0 0.05 0"/>
<feBlend mode="normal" in2="BackgroundImageFix" result="effect1_dropShadow_2_8986"/>
<feBlend mode="normal" in="SourceGraphic" in2="effect1_dropShadow_2_8986" result="shape"/>
</filter>
<filter id="filter1_d_2_8986" x="60" y="0" width="48" height="48" filterUnits="userSpaceOnUse" color-interpolation-filters="sRGB">
<feFlood flood-opacity="0" result="BackgroundImageFix"/>
<feColorMatrix in="SourceAlpha" type="matrix" values="0 0 0 0 0 0 0 0 0 0 0 0 0 0 0 0 0 0 127 0" result="hardAlpha"/>
<feOffset dy="1"/>
<feGaussianBlur stdDeviation="1"/>
<feColorMatrix type="matrix" values="0 0 0 0 0.0627451 0 0 0 0 0.0941176 0 0 0 0 0.156863 0 0 0 0.05 0"/>
<feBlend mode="normal" in2="BackgroundImageFix" result="effect1_dropShadow_2_8986"/>
<feBlend mode="normal" in="SourceGraphic" in2="effect1_dropShadow_2_8986" result="shape"/>
</filter>
<filter id="filter2_d_2_8986" x="120" y="0" width="48" height="48" filterUnits="userSpaceOnUse" color-interpolation-filters="sRGB">
<feFlood flood-opacity="0" result="BackgroundImageFix"/>
<feColorMatrix in="SourceAlpha" type="matrix" values="0 0 0 0 0 0 0 0 0 0 0 0 0 0 0 0 0 0 127 0" result="hardAlpha"/>
<feOffset dy="1"/>
<feGaussianBlur stdDeviation="1"/>
<feColorMatrix type="matrix" values="0 0 0 0 0.0627451 0 0 0 0 0.0941176 0 0 0 0 0.156863 0 0 0 0.05 0"/>
<feBlend mode="normal" in2="BackgroundImageFix" result="effect1_dropShadow_2_8986"/>
<feBlend mode="normal" in="SourceGraphic" in2="effect1_dropShadow_2_8986" result="shape"/>
</filter>
<filter id="filter3_d_2_8986" x="180" y="0" width="48" height="48" filterUnits="userSpaceOnUse" color-interpolation-filters="sRGB">
<feFlood flood-opacity="0" result="BackgroundImageFix"/>
<feColorMatrix in="SourceAlpha" type="matrix" values="0 0 0 0 0 0 0 0 0 0 0 0 0 0 0 0 0 0 127 0" result="hardAlpha"/>
<feOffset dy="1"/>
<feGaussianBlur stdDeviation="1"/>
<feColorMatrix type="matrix" values="0 0 0 0 0.0627451 0 0 0 0 0.0941176 0 0 0 0 0.156863 0 0 0 0.05 0"/>
<feBlend mode="normal" in2="BackgroundImageFix" result="effect1_dropShadow_2_8986"/>
<feBlend mode="normal" in="SourceGraphic" in2="effect1_dropShadow_2_8986" result="shape"/>
</filter>
<filter id="filter4_d_2_8986" x="240" y="0" width="48" height="48" filterUnits="userSpaceOnUse" color-interpolation-filters="sRGB">
<feFlood flood-opacity="0" result="BackgroundImageFix"/>
<feColorMatrix in="SourceAlpha" type="matrix" values="0 0 0 0 0 0 0 0 0 0 0 0 0 0 0 0 0 0 127 0" result="hardAlpha"/>
<feOffset dy="1"/>
<feGaussianBlur stdDeviation="1"/>
<feColorMatrix type="matrix" values="0 0 0 0 0.0627451 0 0 0 0 0.0941176 0 0 0 0 0.156863 0 0 0 0.05 0"/>
<feBlend mode="normal" in2="BackgroundImageFix" result="effect1_dropShadow_2_8986"/>
<feBlend mode="normal" in="SourceGraphic" in2="effect1_dropShadow_2_8986" result="shape"/>
</filter>
<filter id="filter5_d_2_8986" x="300" y="0" width="48" height="48" filterUnits="userSpaceOnUse" color-interpolation-filters="sRGB">
<feFlood flood-opacity="0" result="BackgroundImageFix"/>
<feColorMatrix in="SourceAlpha" type="matrix" values="0 0 0 0 0 0 0 0 0 0 0 0 0 0 0 0 0 0 127 0" result="hardAlpha"/>
<feOffset dy="1"/>
<feGaussianBlur stdDeviation="1"/>
<feColorMatrix type="matrix" values="0 0 0 0 0.0627451 0 0 0 0 0.0941176 0 0 0 0 0.156863 0 0 0 0.05 0"/>
<feBlend mode="normal" in2="BackgroundImageFix" result="effect1_dropShadow_2_8986"/>
<feBlend mode="normal" in="SourceGraphic" in2="effect1_dropShadow_2_8986" result="shape"/>
</filter>
<clipPath id="clip0_2_8986">
<rect width="20" height="20" fill="white" transform="translate(194 13)"/>
</clipPath>
<clipPath id="clip1_2_8986">
<rect width="20" height="20" fill="white" transform="translate(314 13)"/>
</clipPath>
</defs>
</svg>
